Karmilla-Bold.sfdir
StartChar: exclam
Encoding: 33 33 11
Width: 293
Flags: W
LayerCount: 2
Fore
SplineSet
68 69 m 128,-1,1
 68 103 68 103 91 126 c 128,-1,2
 114 149 114 149 150 149 c 128,-1,3
 186 149 186 149 210 126 c 128,-1,4
 234 103 234 103 234 69 c 128,-1,5
 234 35 234 35 210 13 c 128,-1,6
 186 -9 186 -9 150 -9 c 128,-1,7
 114 -9 114 -9 91 13 c 128,-1,0
 68 35 68 35 68 69 c 128,-1,1
86 664 m 1,8,-1
 214 664 l 1,9,-1
 200 219 l 1,10,-1
 99 219 l 1,11,-1
 86 664 l 1,8,-1
EndSplineSet
EndChar
StartChar: dollar
Encoding: 36 36 93
Width: 689
Flags: W
LayerCount: 2
Fore
SplineSet
65 203 m 1,14,-1
 182 203 l 1,15,16
 182 155 182 155 213 130 c 128,-1,17
 244 105 244 105 303 98 c 1,18,-1
 303 292 l 1,19,-1
 253 309 l 2,20,21
 169 337 169 337 123 376.5 c 128,-1,22
 77 416 77 416 77 487 c 128,-1,23
 77 558 77 558 134.5 605.5 c 128,-1,24
 192 653 192 653 303 661 c 1,25,-1
 303 737 l 1,26,-1
 387 737 l 1,27,-1
 387 660 l 1,28,29
 484 650 484 650 535 600 c 128,-1,30
 586 550 586 550 600 470 c 1,31,-1
 483 470 l 1,32,33
 478 500 478 500 453.5 523.5 c 128,-1,34
 429 547 429 547 387 556 c 1,35,-1
 387 374 l 1,36,-1
 475 343 l 2,37,38
 550 317 550 317 587 277.5 c 128,-1,39
 624 238 624 238 624 173 c 0,40,41
 624 101.5 624 101.5 566 50.5 c 0,42,43
 502.389 -5.43348 502.389 -5.43348 387 -13 c 1,44,-1
 387 -101 l 1,45,-1
 303 -101 l 1,46,-1
 303 -11 l 1,47,48
 199 -0.6 199 -0.6 134.5 51 c 0,49,50
 65 106.6 65 106.6 65 203 c 1,14,-1
206 483 m 128,-1,1
 206 455 206 455 222 438.5 c 128,-1,2
 238 422 238 422 273 410 c 1,3,-1
 303 398 l 1,4,-1
 303 559 l 1,5,6
 255 553 255 553 230.5 532 c 128,-1,0
 206 511 206 511 206 483 c 128,-1,1
387 96 m 1,7,8
 441 101 441 101 466 123 c 128,-1,9
 491 145 491 145 491 175 c 0,10,11
 491 232.257 491 232.257 419 259 c 2,12,-1
 387 271 l 1,13,-1
 387 96 l 1,7,8
EndSplineSet
EndChar
StartChar: percent
Encoding: 37 37 150
Width: 765
Flags: W
LayerCount: 2
Fore
SplineSet
61 511 m 0,34,35
 61 584.579 61 584.579 102 624.5 c 0,36,37
 140.514 662 140.514 662 197.5 662 c 0,38,39
 225 662 225 662 250 652.5 c 128,-1,40
 275 643 275 643 294 624.5 c 0,41,42
 335 584.579 335 584.579 335 511 c 0,43,44
 335 438 335 438 294 397 c 0,45,46
 256 359 256 359 197 359 c 0,47,48
 140 359 140 359 102 397 c 0,49,50
 61 438 61 438 61 511 c 0,34,35
106 0 m 1,22,-1
 546 649 l 1,23,-1
 665 649 l 1,24,-1
 226 0 l 1,25,-1
 106 0 l 1,22,-1
149 511 m 0,26,27
 149 434 149 434 197 434 c 0,28,29
 246 434 246 434 246 511 c 0,30,31
 246 587 246 587 197 587 c 0,32,33
 149 587 149 587 149 511 c 0,26,27
436 139 m 0,8,9
 436 212.579 436 212.579 477 252.5 c 0,10,11
 515.513 290 515.513 290 573 290 c 128,-1,12
 630.487 290 630.487 290 669 252.5 c 0,13,14
 710 212.579 710 212.579 710 139 c 0,15,16
 710 65 710 65 669 24 c 0,17,18
 631 -14 631 -14 573 -14 c 128,-1,19
 515 -14 515 -14 477 24 c 0,20,21
 436 65 436 65 436 139 c 0,8,9
525 138.5 m 128,-1,1
 525 62 525 62 573 62 c 0,2,3
 594 62 594 62 608 79.5 c 128,-1,4
 622 97 622 97 622 138.5 c 128,-1,5
 622 180 622 180 608 197.5 c 128,-1,6
 594 215 594 215 573 215 c 0,7,0
 525 215 525 215 525 138.5 c 128,-1,1
EndSplineSet
EndChar
StartChar: ampersand
Encoding: 38 38 126
Width: 965
Flags: W
LayerCount: 2
Fore
SplineSet
92 185 m 0,18,19
 92 314.886 92 314.886 275 344 c 1,20,-1
 259 359 l 1,21,22
 187 424.25 187 424.25 187 502 c 0,23,24
 187 571.25 187 571.25 244 614 c 0,25,26
 305.333 660 305.333 660 406 660 c 0,27,28
 503.262 660 503.262 660 563.5 614 c 0,29,30
 620 570.855 620 570.855 620 505.927 c 128,-1,31
 620 441 620 441 578.5 396.5 c 128,-1,32
 537 352 537 352 452 320 c 1,33,-1
 579 205 l 1,34,35
 640.363 277.869 640.363 277.869 684 388 c 1,36,-1
 764 344 l 1,37,38
 720.15 218.715 720.15 218.715 654 137 c 1,39,-1
 671 122 l 2,40,41
 689 106 689 106 705 98 c 128,-1,42
 721 90 721 90 744.5 90 c 128,-1,43
 768 90 768 90 785 107.5 c 128,-1,44
 802 125 802 125 804 164 c 1,45,-1
 911 164 l 1,46,47
 909 82 909 82 870.5 34 c 128,-1,48
 832 -14 832 -14 756 -14 c 0,49,50
 708 -14 708 -14 667.5 5 c 128,-1,51
 627 24 627 24 582 65 c 1,52,53
 482.211 -14 482.211 -14 360 -14 c 0,54,55
 247.556 -14 247.556 -14 170.5 43 c 0,56,57
 92 101.068 92 101.068 92 185 c 0,18,19
222 192 m 0,10,11
 222 150 222 150 258.5 121.5 c 128,-1,12
 295 93 295 93 361 93 c 0,13,14
 436.952 93 436.952 93 504 137 c 1,15,-1
 342 284 l 1,16,17
 222 266.857 222 266.857 222 192 c 0,10,11
317 485 m 0,0,1
 317 441 317 441 364 400 c 1,2,-1
 387 379 l 1,3,4
 441 402 441 402 465.5 428 c 128,-1,5
 490 454 490 454 490 486.5 c 128,-1,6
 490 519 490 519 467 538.5 c 128,-1,7
 444 558 444 558 403 558 c 128,-1,8
 362 558 362 558 339.5 536.5 c 128,-1,9
 317 515 317 515 317 485 c 0,0,1
EndSplineSet
EndChar
StartChar: parenleft
Encoding: 40 40 68
Width: 400
Flags: W
LayerCount: 2
Fore
SplineSet
73 318 m 0,0,1
 73 570.157 73 570.157 282 754 c 1,2,-1
 367 692 l 1,3,4
 281 602 281 602 238 511.5 c 128,-1,5
 195 421 195 421 195 318 c 128,-1,6
 195 215 195 215 238 125.5 c 128,-1,7
 281 36 281 36 367 -54 c 1,8,-1
 282 -118 l 1,9,10
 73 67.7778 73 67.7778 73 318 c 0,0,1
EndSplineSet
EndChar
StartChar: asterisk
Encoding: 42 42 148
Width: 409
Flags: W
LayerCount: 2
Fore
SplineSet
50 565 m 1,0,-1
 80 635 l 1,1,-1
 179 585 l 1,2,-1
 167 704 l 1,3,-1
 247 704 l 1,4,-1
 235 585 l 1,5,-1
 334 637 l 1,6,-1
 364 566 l 1,7,-1
 255 529 l 1,8,-1
 341 447 l 1,9,-1
 282 396 l 1,10,-1
 208 497 l 1,11,-1
 132 396 l 1,12,-1
 75 447 l 1,13,-1
 161 528 l 1,14,-1
 50 565 l 1,0,-1
EndSplineSet
EndChar
StartChar: plus
Encoding: 43 43 70
Width: 544
Flags: W
LayerCount: 2
Fore
SplineSet
18 194 m 1,0,-1
 18 297 l 1,1,-1
 213 297 l 1,2,-1
 213 491 l 1,3,-1
 331 491 l 1,4,-1
 331 297 l 1,5,-1
 526 297 l 1,6,-1
 526 194 l 1,7,-1
 331 194 l 1,8,-1
 331 0 l 1,9,-1
 213 0 l 1,10,-1
 213 194 l 1,11,-1
 18 194 l 1,0,-1
EndSplineSet
EndChar
StartChar: zero
Encoding: 48 48 73
Width: 633
Flags: W
LayerCount: 2
Fore
SplineSet
47 324 m 128,-1,9
 47 491.5 47 491.5 122 579 c 0,10,11
 193.143 662 193.143 662 316.5 662 c 0,12,13
 376 662 376 662 425.5 641.5 c 128,-1,14
 475 621 475 621 510.5 579 c 0,15,16
 586 489.676 586 489.676 586 324 c 128,-1,17
 586 158.324 586 158.324 510.5 69 c 0,18,19
 440.345 -14 440.345 -14 317 -14 c 0,20,21
 193.143 -14 193.143 -14 122 69 c 0,22,8
 47 156.5 47 156.5 47 324 c 128,-1,9
169 324 m 128,-1,1
 169 212 169 212 207.5 153.5 c 128,-1,2
 246 95 246 95 316.5 95 c 128,-1,3
 387 95 387 95 425.5 153.5 c 128,-1,4
 464 212 464 212 464 324 c 128,-1,5
 464 436 464 436 425.5 495.5 c 128,-1,6
 387 555 387 555 316.5 555 c 128,-1,7
 246 555 246 555 207.5 495.5 c 128,-1,0
 169 436 169 436 169 324 c 128,-1,1
EndSplineSet
Substitution2: "'onum' Oldstyle Figures in Latin lookup 0 subtable" zero.propold
EndChar
StartChar: one
Encoding: 49 49 74
Width: 357
Flags: W
LayerCount: 2
Fore
SplineSet
42 487 m 1,0,-1
 42 600 l 1,1,2
 116.9 611.015 116.9 611.015 174 653 c 1,3,-1
 263 653 l 1,4,-1
 263 0 l 1,5,-1
 145 0 l 1,6,-1
 145 512 l 1,7,8
 94 487 94 487 42 487 c 1,0,-1
EndSplineSet
Substitution2: "'onum' Oldstyle Figures in Latin lookup 0 subtable" one.propold
EndChar
StartChar: three
Encoding: 51 51 76
Width: 622
Flags: W
LayerCount: 2
Fore
SplineSet
44 204 m 1,0,-1
 170 204 l 1,1,2
 173 153 173 153 211.5 124 c 128,-1,3
 250 95 250 95 312 95 c 128,-1,4
 374 95 374 95 408.5 122.5 c 128,-1,5
 443 150 443 150 443 192.5 c 128,-1,6
 443 235 443 235 411.5 259 c 128,-1,7
 380 283 380 283 312 283 c 2,8,-1
 226 283 l 1,9,-1
 226 376 l 1,10,-1
 300 376 l 2,11,12
 357 376 357 376 389 400.5 c 128,-1,13
 421 425 421 425 421 465 c 128,-1,14
 421 505 421 505 393.5 530 c 128,-1,15
 366 555 366 555 309 555 c 0,16,17
 200.043 555 200.043 555 182 472 c 1,18,-1
 58 472 l 1,19,20
 67.6258 568.258 67.6258 568.258 136.5 617 c 0,21,22
 200.087 662 200.087 662 304 662 c 0,23,24
 410.792 662 410.792 662 478.5 612 c 0,25,26
 548 560.677 548 560.677 548 481 c 0,27,28
 548 431 548 431 521 394.5 c 128,-1,29
 494 358 494 358 441 340 c 1,30,31
 500 320 500 320 535.5 280.5 c 128,-1,32
 571 241 571 241 571 190 c 128,-1,33
 571 139 571 139 552.5 103 c 128,-1,34
 534 67 534 67 500 41 c 0,35,36
 428.077 -14 428.077 -14 313 -14 c 0,37,38
 203.182 -14 203.182 -14 127.5 41.5 c 0,39,40
 44 102.733 44 102.733 44 204 c 1,0,-1
EndSplineSet
Substitution2: "'onum' Oldstyle Figures in Latin lookup 0 subtable" three.propold
EndChar
StartChar: nine
Encoding: 57 57 82
Width: 610
Flags: W
LayerCount: 2
Fore
SplineSet
53 456 m 0,12,13
 53 548.387 53 548.387 118 605 c 0,14,15
 183.444 662 183.444 662 287 662 c 0,16,17
 405.012 662 405.012 662 483.5 572 c 0,18,19
 564 479.693 564 479.693 564 335 c 0,20,21
 564 84 564 84 414 10.5 c 0,22,23
 364 -14 364 -14 305.5 -14 c 128,-1,24
 247 -14 247 -14 203.5 1 c 128,-1,25
 160 16 160 16 128 43 c 0,26,27
 60 100.375 60 100.375 60 192 c 1,28,-1
 183 192 l 1,29,30
 185 147 185 147 215.5 121 c 128,-1,31
 246 95 246 95 293 95 c 0,32,33
 445 95 445 95 445 345 c 0,34,35
 445 372 445 372 441 404 c 1,36,37
 427.75 326.39 427.75 326.39 376 286.5 c 0,38,39
 329.946 251 329.946 251 259 251 c 0,40,41
 168 251 168 251 110.5 308.5 c 128,-1,42
 53 366 53 366 53 456 c 0,12,13
175 450.5 m 128,-1,1
 175 402 175 402 207.5 375 c 128,-1,2
 240 348 240 348 288 348 c 0,3,4
 334.778 348 334.778 348 367.5 376.5 c 0,5,6
 401 405.677 401 405.677 401 451 c 0,7,8
 401 497.323 401 497.323 367.5 526.5 c 0,9,10
 335.926 554 335.926 554 287.963 554 c 128,-1,11
 240 554 240 554 207.5 526.5 c 128,-1,0
 175 499 175 499 175 450.5 c 128,-1,1
EndSplineSet
Substitution2: "'onum' Oldstyle Figures in Latin lookup 0 subtable" nine.propold
EndChar
StartChar: question
Encoding: 63 63 94
Width: 517
Flags: W
LayerCount: 2
Fore
SplineSet
24 470 m 1,8,9
 29 557 29 557 88 609.5 c 128,-1,10
 147 662 147 662 253.643 662 c 128,-1,11
 360.286 662 360.286 662 422.643 610.212 c 128,-1,12
 485 558.424 485 558.424 485 481 c 0,13,14
 485 428 485 428 459 392.5 c 128,-1,15
 433 357 433 357 377 329 c 0,16,17
 329.571 305.286 329.571 305.286 315.286 288.143 c 128,-1,18
 301 271 301 271 297 256.5 c 128,-1,19
 293 242 293 242 293 223 c 2,20,-1
 293 194 l 1,21,-1
 175 194 l 1,22,-1
 175 234 l 2,23,24
 175 324.132 175 324.132 229 362.5 c 0,25,26
 248 376 248 376 285 395 c 128,-1,27
 322 414 322 414 338.5 433.5 c 128,-1,28
 355 453 355 453 355 483.5 c 128,-1,29
 355 514 355 514 330 534.5 c 128,-1,30
 305 555 305 555 256 555 c 128,-1,31
 207 555 207 555 179 531.5 c 128,-1,32
 151 508 151 508 147 470 c 1,33,-1
 24 470 l 1,8,9
155 65 m 128,-1,1
 155 99 155 99 177.5 121 c 128,-1,2
 200 143 200 143 236.5 143 c 128,-1,3
 273 143 273 143 297 121 c 128,-1,4
 321 99 321 99 321 65 c 128,-1,5
 321 31 321 31 297 8.5 c 128,-1,6
 273 -14 273 -14 236.5 -14 c 128,-1,7
 200 -14 200 -14 177.5 8.5 c 128,-1,0
 155 31 155 31 155 65 c 128,-1,1
EndSplineSet
EndChar
StartChar: at
Encoding: 64 64 127
Width: 1027
Flags: W
LayerCount: 2
Fore
SplineSet
67 215.5 m 128,-1,1
 67 311 67 311 104 394.5 c 128,-1,2
 141 478 141 478 207 537.5 c 128,-1,3
 273 597 273 597 363.5 629.5 c 128,-1,4
 454 662 454 662 553.5 662 c 128,-1,5
 653 662 653 662 730 633.5 c 128,-1,6
 807 605 807 605 861.5 555 c 128,-1,7
 916 505 916 505 946 437.5 c 128,-1,8
 976 370 976 370 976 297 c 128,-1,9
 976 224 976 224 955 170.5 c 128,-1,10
 934 117 934 117 900.5 80.5 c 128,-1,11
 867 44 867 44 823.5 25 c 128,-1,12
 780 6 780 6 733.5 6 c 128,-1,13
 687 6 687 6 657 23.5 c 128,-1,14
 627 41 627 41 618 73 c 1,15,-1
 612 89 l 1,16,17
 592 51 592 51 563.5 28.5 c 128,-1,18
 535 6 535 6 493 6 c 128,-1,19
 451 6 451 6 421.5 20 c 128,-1,20
 392 34 392 34 369 58.5 c 0,21,22
 318 112.826 318 112.826 318 192 c 0,23,24
 318 295.409 318 295.409 390 368.5 c 0,25,26
 460.433 440 460.433 440 559 440 c 0,27,28
 625 440 625 440 664.5 400.5 c 128,-1,29
 704 361 704 361 704 281 c 2,30,-1
 704 150 l 2,31,32
 704 99 704 99 739 99 c 0,33,34
 755 99 755 99 775.5 109.5 c 128,-1,35
 796 120 796 120 814 143.5 c 0,36,37
 857 199.639 857 199.639 857 293 c 0,38,39
 857 409.079 857 409.079 780 480 c 0,40,41
 697.486 556 697.486 556 560 556 c 0,42,43
 394.688 556 394.688 556 289.5 454 c 0,44,45
 186 353.636 186 353.636 186 202 c 0,46,47
 186 55.3673 186 55.3673 285 -30.5 c 0,48,49
 389.341 -121 389.341 -121 569 -121 c 1,50,-1
 569 -218 l 1,51,52
 455 -218 455 -218 362.5 -184.5 c 128,-1,53
 270 -151 270 -151 204 -93.5 c 128,-1,54
 138 -36 138 -36 102.5 42 c 128,-1,0
 67 120 67 120 67 215.5 c 128,-1,1
425 194 m 0,55,56
 425 149 425 149 448.5 125.5 c 128,-1,57
 472 102 472 102 507 102 c 128,-1,58
 542 102 542 102 565.5 121.5 c 128,-1,59
 589 141 589 141 609 180 c 1,60,-1
 609 280 l 2,61,62
 609 311 609 311 597.5 330 c 128,-1,63
 586 349 586 349 560 349 c 128,-1,64
 534 349 534 349 511 338.5 c 128,-1,65
 488 328 488 328 469 307.5 c 0,66,67
 425 260.026 425 260.026 425 194 c 0,55,56
EndSplineSet
EndChar
StartChar: G
Encoding: 71 71 44
Width: 677
Flags: W
LayerCount: 2
Fore
SplineSet
47 321 m 0,0,1
 47 476.561 47 476.561 135 571 c 0,2,3
 219.795 662 219.795 662 354 662 c 0,4,5
 445 662 445 662 506.5 622.5 c 128,-1,6
 568 583 568 583 603 498 c 1,7,-1
 482 470 l 1,8,9
 429.381 555 429.381 555 348 555 c 0,10,11
 274.18 555 274.18 555 225 492.5 c 0,12,13
 174 427.688 174 427.688 174 321 c 0,14,15
 174 219.727 174 219.727 220 157 c 0,16,17
 265.467 95 265.467 95 340 95 c 0,18,19
 404 95 404 95 445 136 c 0,20,21
 487 178 487 178 487 251 c 2,22,-1
 487 255 l 1,23,-1
 341 258 l 1,24,-1
 341 334 l 1,25,-1
 600 334 l 1,26,-1
 600 0 l 1,27,-1
 504 0 l 1,28,-1
 491 103 l 1,29,30
 449.214 -14 449.214 -14 330 -14 c 0,31,32
 208.455 -14 208.455 -14 129 78 c 0,33,34
 47 172.947 47 172.947 47 321 c 0,0,1
EndSplineSet
EndChar
StartChar: I
Encoding: 73 73 46
Width: 304
Flags: W
LayerCount: 2
Fore
SplineSet
93 0 m 1,0,-1
 93 649 l 1,1,-1
 211 649 l 1,2,-1
 211 0 l 1,3,-1
 93 0 l 1,0,-1
EndSplineSet
EndChar
StartChar: J
Encoding: 74 74 47
Width: 444
Flags: W
LayerCount: 2
Fore
SplineSet
16 27 m 1,0,-1
 16 145 l 1,1,2
 92.5217 101 92.5217 101 165 101 c 0,3,4
 208 101 208 101 227.5 126 c 128,-1,5
 247 151 247 151 247 202 c 2,6,-1
 247 649 l 1,7,-1
 366 649 l 1,8,-1
 366 202 l 2,9,10
 366 89.549 366 89.549 312.5 35 c 0,11,12
 264.442 -14 264.442 -14 180.082 -14 c 128,-1,13
 95.7222 -14 95.7222 -14 16 27 c 1,0,-1
EndSplineSet
EndChar
StartChar: L
Encoding: 76 76 49
Width: 494
Flags: W
LayerCount: 2
Fore
SplineSet
93 0 m 1,0,-1
 93 649 l 1,1,-1
 211 649 l 1,2,-1
 211 103 l 1,3,-1
 478 103 l 5,4,-1
 478 0 l 1,5,-1
 93 0 l 1,0,-1
EndSplineSet
EndChar
StartChar: O
Encoding: 79 79 52
Width: 683
Flags: W
LayerCount: 2
Fore
SplineSet
47 325 m 0,8,9
 47 490.692 47 490.692 129 579 c 0,10,11
 206.071 662 206.071 662 341.5 662 c 0,12,13
 407 662 407 662 461 640.5 c 128,-1,14
 515 619 515 619 554 577 c 0,15,16
 636 488.692 636 488.692 636 325 c 0,17,18
 636 159.859 636 159.859 554 70.5 c 0,19,20
 476.459 -14 476.459 -14 341 -14 c 0,21,22
 207.459 -14 207.459 -14 129 71.5 c 0,23,24
 47 160.859 47 160.859 47 325 c 0,8,9
169 323.5 m 128,-1,1
 169 212 169 212 216 152.5 c 128,-1,2
 263 93 263 93 342 93 c 128,-1,3
 421 93 421 93 467.5 152.5 c 128,-1,4
 514 212 514 212 514 323.5 c 128,-1,5
 514 435 514 435 467.5 495.5 c 128,-1,6
 421 556 421 556 342 556 c 128,-1,7
 263 556 263 556 216 495.5 c 128,-1,0
 169 435 169 435 169 323.5 c 128,-1,1
EndSplineSet
EndChar
StartChar: Q
Encoding: 81 81 54
Width: 686
Flags: W
LayerCount: 2
Fore
SplineSet
47 325 m 0,8,9
 47 490.692 47 490.692 129 579 c 0,10,11
 206.071 662 206.071 662 341 662 c 0,12,13
 475.071 662 475.071 662 554 577 c 0,14,15
 636 488.692 636 488.692 636 325 c 0,16,17
 636 190 636 190 584 109.5 c 128,-1,18
 532 29 532 29 444 1 c 1,19,-1
 460 -24 l 2,20,21
 484.448 -60.6724 484.448 -60.6724 531 -63 c 1,22,23
 573.636 -63 573.636 -63 628 -40 c 1,24,-1
 628 -162 l 1,25,26
 586.6 -180 586.6 -180 538.8 -180 c 0,27,28
 442.333 -180 442.333 -180 375 -79 c 2,29,-1
 332 -14 l 1,30,31
 202.778 -11.9489 202.778 -11.9489 126.5 74.5 c 0,32,33
 47 164.6 47 164.6 47 325 c 0,8,9
169 323.5 m 128,-1,1
 169 212 169 212 216 152.5 c 128,-1,2
 263 93 263 93 342 93 c 128,-1,3
 421 93 421 93 467.5 152.5 c 128,-1,4
 514 212 514 212 514 323.5 c 128,-1,5
 514 435 514 435 467.5 495.5 c 128,-1,6
 421 556 421 556 342 556 c 128,-1,7
 263 556 263 556 216 495.5 c 128,-1,0
 169 435 169 435 169 323.5 c 128,-1,1
EndSplineSet
EndChar
StartChar: R
Encoding: 82 82 55
Width: 644
Flags: W
LayerCount: 2
Fore
SplineSet
93 0 m 1,8,-1
 93 649 l 1,9,-1
 333 649 l 2,10,11
 448.245 649 448.245 649 512 594.5 c 0,12,13
 575 540.645 575 540.645 575 450 c 0,14,15
 575 381 575 381 536 332 c 128,-1,16
 497 283 497 283 424 264 c 1,17,-1
 598 0 l 1,18,-1
 444 0 l 1,19,-1
 301 253 l 1,20,-1
 211 253 l 1,21,-1
 211 0 l 1,22,-1
 93 0 l 1,8,-1
211 332 m 1,0,-1
 322 332 l 2,1,2
 387 332 387 332 420 361.5 c 128,-1,3
 453 391 453 391 453 439.5 c 128,-1,4
 453 488 453 488 423 517.5 c 128,-1,5
 393 547 393 547 333 547 c 2,6,-1
 211 547 l 1,7,-1
 211 332 l 1,0,-1
EndSplineSet
EndChar
StartChar: T
Encoding: 84 84 57
Width: 532
Flags: W
LayerCount: 2
Fore
SplineSet
6 547 m 1,0,-1
 6 649 l 1,1,-1
 526 649 l 5,2,-1
 526 547 l 1,3,-1
 325 547 l 1,4,-1
 325 0 l 1,5,-1
 207 0 l 1,6,-1
 207 547 l 1,7,-1
 6 547 l 1,0,-1
EndSplineSet
EndChar
StartChar: U
Encoding: 85 85 58
Width: 690
Flags: W
LayerCount: 2
Fore
SplineSet
83 245 m 2,0,-1
 83 649 l 1,1,-1
 201 649 l 1,2,-1
 201 245 l 2,3,4
 201 165 201 165 241.5 130 c 128,-1,5
 282 95 282 95 346 95 c 128,-1,6
 410 95 410 95 450.5 130 c 128,-1,7
 491 165 491 165 491 245 c 2,8,-1
 491 649 l 1,9,-1
 609 649 l 1,10,-1
 609 245 l 2,11,12
 609 121 609 121 540 53.5 c 128,-1,13
 471 -14 471 -14 346 -14 c 128,-1,14
 221 -14 221 -14 152 53.5 c 128,-1,15
 83 121 83 121 83 245 c 2,0,-1
EndSplineSet
EndChar
StartChar: bracketright
Encoding: 93 93 154
Width: 336
Flags: W
LayerCount: 2
Fore
SplineSet
-4 -34 m 1,0,-1
 125 -34 l 1,1,-1
 125 684 l 1,2,-1
 -4 684 l 1,3,-1
 -4 790 l 1,4,-1
 243 790 l 1,5,-1
 243 -141 l 1,6,-1
 -4 -141 l 1,7,-1
 -4 -34 l 1,0,-1
EndSplineSet
EndChar
StartChar: grave
Encoding: 96 96 96
Width: 356
Flags: W
LayerCount: 2
Fore
SplineSet
24 798 m 1,0,-1
 66 900 l 1,1,-1
 333 768 l 1,2,-1
 303 694 l 1,3,-1
 24 798 l 1,0,-1
EndSplineSet
EndChar
StartChar: f
Encoding: 102 102 17
Width: 366
Flags: W
LayerCount: 2
Fore
SplineSet
40 407 m 5,0,-1
 40 486 l 5,1,-1
 112 486 l 5,2,-1
 112 543 l 6,3,4
 112 618.341 112 618.341 156.5 658.5 c 4,5,6
 195.838 694 195.838 694 260 694 c 4,7,8
 301 694 301 694 361 682 c 5,9,-1
 338 591 l 5,10,11
 310 601 310 601 287.5 601 c 132,-1,12
 265 601 265 601 248 588.5 c 132,-1,13
 231 576 231 576 231 542 c 6,14,-1
 231 486 l 5,15,-1
 320 486 l 5,16,-1
 320 407 l 5,17,-1
 231 407 l 5,18,-1
 231 0 l 5,19,-1
 112 0 l 5,20,-1
 112 407 l 5,21,-1
 40 407 l 5,0,-1
EndSplineSet
EndChar
StartChar: i
Encoding: 105 105 20
Width: 328
Flags: W
LayerCount: 2
Fore
SplineSet
89 643 m 128,-1,1
 89 675 89 675 108 693.5 c 128,-1,2
 127 712 127 712 161.5 712 c 128,-1,3
 196 712 196 712 215.5 693.5 c 128,-1,4
 235 675 235 675 235 643 c 128,-1,5
 235 611 235 611 215.5 592.5 c 128,-1,6
 196 574 196 574 161.5 574 c 128,-1,7
 127 574 127 574 108 592.5 c 128,-1,0
 89 611 89 611 89 643 c 128,-1,1
103 0 m 1,8,-1
 103 487 l 1,9,-1
 221 487 l 1,10,-1
 221 0 l 1,11,-1
 103 0 l 1,8,-1
EndSplineSet
EndChar
StartChar: n
Encoding: 110 110 25
Width: 623
Flags: W
LayerCount: 2
Fore
SplineSet
93 0 m 1,0,-1
 93 486 l 1,1,-1
 196 486 l 1,2,-1
 209 402 l 1,3,4
 256.51 499 256.51 499 363 499 c 0,5,6
 453 499 453 499 498.5 440 c 128,-1,7
 544 381 544 381 544 284 c 2,8,-1
 544 0 l 1,9,-1
 426 0 l 1,10,-1
 426 284 l 2,11,12
 426 338 426 338 400 365.5 c 128,-1,13
 374 393 374 393 327 393 c 128,-1,14
 280 393 280 393 246.5 351 c 128,-1,15
 213 309 213 309 211 225 c 1,16,-1
 211 0 l 1,17,-1
 93 0 l 1,0,-1
EndSplineSet
EndChar
StartChar: p
Encoding: 112 112 27
Width: 610
Flags: W
LayerCount: 2
Fore
SplineSet
93 -237 m 1,14,-1
 93 486 l 1,15,-1
 190 486 l 1,16,-1
 201 420 l 1,17,18
 247.244 499 247.244 499 341 499 c 0,19,20
 431.121 499 431.121 499 495 431 c 0,21,22
 563 358.613 563 358.613 563 243 c 0,23,24
 563 125.762 563 125.762 494.5 54 c 0,25,26
 429.591 -14 429.591 -14 340.795 -14 c 128,-1,27
 252 -14 252 -14 211 39 c 1,28,-1
 211 -237 l 1,29,-1
 93 -237 l 1,14,-1
211 196 m 2,0,1
 211 148.6 211 148.6 244 120 c 0,2,3
 275.154 93 275.154 93 319.5 93 c 0,4,5
 341 93 341 93 363.5 102 c 128,-1,6
 386 111 386 111 404 130 c 0,7,8
 444 172.222 444 172.222 444 242.611 c 128,-1,9
 444 313 444 313 409.5 353 c 128,-1,10
 375 393 375 393 325.5 393 c 128,-1,11
 276 393 276 393 244.5 364.5 c 128,-1,12
 213 336 213 336 211 283 c 1,13,-1
 211 196 l 2,0,1
EndSplineSet
EndChar
StartChar: q
Encoding: 113 113 28
Width: 610
Flags: W
LayerCount: 2
Fore
SplineSet
47 243 m 0,14,15
 47 357.967 47 357.967 114.5 431 c 0,16,17
 177.348 499 177.348 499 268 499 c 0,18,19
 313 499 313 499 351.5 477.5 c 128,-1,20
 390 456 390 456 414 411 c 1,21,-1
 440 486 l 1,22,-1
 517 486 l 1,23,-1
 517 -237 l 1,24,-1
 398 -237 l 1,25,-1
 398 63 l 1,26,27
 361.639 -14 361.639 -14 274 -14 c 0,28,29
 180.409 -14 180.409 -14 115.5 54 c 0,30,31
 47 125.762 47 125.762 47 243 c 0,14,15
166 243 m 0,0,1
 166 172.222 166 172.222 206 130 c 0,2,3
 241.053 93 241.053 93 291 93 c 0,4,5
 332.4 93 332.4 93 363 118.5 c 0,6,7
 396.045 146.038 396.045 146.038 398 191 c 1,8,-1
 398 278 l 2,9,10
 398 333 398 333 366 363 c 128,-1,11
 334 393 334 393 284.5 393 c 128,-1,12
 235 393 235 393 200.5 353 c 128,-1,13
 166 313 166 313 166 243 c 0,0,1
EndSplineSet
EndChar
StartChar: r
Encoding: 114 114 29
Width: 416
Flags: W
LayerCount: 2
Fore
SplineSet
93 0 m 1,0,-1
 93 487 l 1,1,-1
 211 487 l 1,2,-1
 211 390 l 1,3,4
 254.585 495 254.585 495 343 495 c 0,5,6
 360.333 495 360.333 495 386 488 c 1,7,-1
 384 370 l 1,8,9
 356 376 356 376 329 376 c 0,10,11
 211 376 211 376 211 213 c 2,12,-1
 211 0 l 1,13,-1
 93 0 l 1,0,-1
EndSplineSet
EndChar
StartChar: y
Encoding: 121 121 36
Width: 504
Flags: W
LayerCount: 2
Fore
SplineSet
0 -115 m 1,0,1
 52 -148 52 -148 105 -148 c 0,2,3
 140 -148 140 -148 162.5 -120 c 128,-1,4
 185 -92 185 -92 199 -47 c 2,5,-1
 214 0 l 1,6,-1
 19 486 l 1,7,-1
 153 486 l 1,8,-1
 270 136 l 1,9,-1
 372 486 l 1,10,-1
 492 486 l 1,11,-1
 306 -88 l 2,12,13
 277 -175 277 -175 235.5 -213 c 128,-1,14
 194 -251 194 -251 129.5 -251 c 128,-1,15
 65 -251 65 -251 0 -219 c 1,16,-1
 0 -115 l 1,0,1
EndSplineSet
EndChar
StartChar: braceleft
Encoding: 123 123 157
Width: 391
Flags: W
LayerCount: 2
Fore
SplineSet
71 260 m 1,0,-1
 71 379 l 1,1,-1
 96 379 l 2,2,3
 116 379 116 379 122.5 394.5 c 128,-1,4
 129 410 129 410 129 452 c 2,5,-1
 129 544 l 2,6,7
 129 723.265 129 723.265 270 776.5 c 0,8,9
 319 795 319 795 387 795 c 1,10,-1
 387 688 l 1,11,12
 313 688 313 688 279.5 652.5 c 128,-1,13
 246 617 246 617 246 542 c 2,14,-1
 246 446 l 2,15,16
 246 398 246 398 227.5 367 c 128,-1,17
 209 336 209 336 180 322 c 1,18,-1
 180 317 l 1,19,20
 209 303 209 303 227.5 272 c 128,-1,21
 246 241 246 241 246 193 c 2,22,-1
 246 97 l 2,23,24
 246 22 246 22 279.5 -13.5 c 128,-1,25
 313 -49 313 -49 387 -49 c 1,26,-1
 387 -156 l 1,27,28
 255.791 -156 255.791 -156 189.5 -85.5 c 0,29,30
 129 -21.1587 129 -21.1587 129 96 c 2,31,-1
 129 187 l 2,32,33
 129 229 129 229 122.5 244.5 c 128,-1,34
 116 260 116 260 96 260 c 2,35,-1
 71 260 l 1,0,-1
EndSplineSet
EndChar
StartChar: braceright
Encoding: 125 125 158
Width: 391
Flags: W
LayerCount: 2
Fore
SplineSet
4 -49 m 1,0,1
 78 -49 78 -49 111.5 -13.5 c 128,-1,2
 145 22 145 22 145 97 c 2,3,-1
 145 193 l 2,4,5
 145 241 145 241 163.5 272 c 128,-1,6
 182 303 182 303 211 317 c 1,7,-1
 211 322 l 1,8,9
 182 336 182 336 163.5 367 c 128,-1,10
 145 398 145 398 145 446 c 2,11,-1
 145 542 l 2,12,13
 145 617 145 617 111.5 652.5 c 128,-1,14
 78 688 78 688 4 688 c 1,15,-1
 4 795 l 1,16,17
 135.209 795 135.209 795 201.5 724.5 c 0,18,19
 262 660.159 262 660.159 262 544 c 2,20,-1
 262 452 l 2,21,22
 262 410 262 410 268.5 394.5 c 128,-1,23
 275 379 275 379 295 379 c 2,24,-1
 320 379 l 1,25,-1
 320 260 l 1,26,-1
 295 260 l 2,27,28
 275 260 275 260 268.5 244.5 c 128,-1,29
 262 229 262 229 262 187 c 2,30,-1
 262 96 l 2,31,32
 262 -84.2653 262 -84.2653 121 -137.5 c 0,33,34
 72 -156 72 -156 4 -156 c 1,35,-1
 4 -49 l 1,0,1
EndSplineSet
EndChar
StartChar: sterling
Encoding: 163 163 95
Width: 602
Flags: W
LayerCount: 2
Fore
SplineSet
22 0 m 1,0,-1
 22 107 l 1,1,-1
 54 107 l 2,2,3
 91 107 91 107 106 128 c 128,-1,4
 121 149 121 149 121 194 c 2,5,-1
 121 281 l 1,6,-1
 38 281 l 1,7,-1
 38 360 l 1,8,-1
 121 360 l 1,9,-1
 121 444 l 2,10,11
 121 552 121 552 177 607 c 128,-1,12
 233 662 233 662 325 662 c 0,13,14
 493 662 493 662 517 487 c 1,15,-1
 401 487 l 1,16,17
 396 520 396 520 376 537.5 c 128,-1,18
 356 555 356 555 321.5 555 c 128,-1,19
 287 555 287 555 263 528 c 128,-1,20
 239 501 239 501 239 444 c 2,21,-1
 239 360 l 1,22,-1
 410 360 l 1,23,-1
 410 281 l 1,24,-1
 239 281 l 1,25,-1
 239 202 l 2,26,27
 239 137 239 137 203 107 c 1,28,-1
 339 107 l 2,29,30
 389 107 389 107 410.5 125.5 c 128,-1,31
 432 144 432 144 437 184 c 1,32,-1
 566 184 l 1,33,34
 561.812 91.8545 561.812 91.8545 512 48.5 c 0,35,36
 456.277 -1.42109e-014 456.277 -1.42109e-014 340 0 c 2,37,-1
 22 0 l 1,0,-1
EndSplineSet
EndChar
StartChar: plusminus
Encoding: 177 177 205
Width: 544
Flags: WO
LayerCount: 2
Fore
SplineSet
18 388 m 1
 18 491 l 1
 213 491 l 1
 213 685 l 1
 331 685 l 1
 331 491 l 1
 526 491 l 1
 526 388 l 1
 331 388 l 1
 331 194 l 1
 213 194 l 1
 213 388 l 1
 18 388 l 1
EndSplineSet
Refer: 71 8722 N 1 0 0 1 0 -191 2
EndChar
StartChar: acute
Encoding: 180 180 97
Width: 356
Flags: W
LayerCount: 2
Fore
SplineSet
23 768 m 1,0,-1
 290 900 l 1,1,-1
 332 798 l 1,2,-1
 53 694 l 1,3,-1
 23 768 l 1,0,-1
EndSplineSet
Substitution2: "Polish letters" acute.alt
EndChar
StartChar: AE
Encoding: 198 198 297
Width: 906
VWidth: 0
Flags: W
LayerCount: 2
Fore
SplineSet
22 0 m 257,0,-1
 150 0 l 257,1,-1
 207 140 l 257,2,-1
 412 140 l 257,3,-1
 412 0 l 257,4,-1
 830 0 l 257,5,-1
 830 103 l 257,6,-1
 530 103 l 257,7,-1
 530 274 l 257,8,-1
 811 274 l 257,9,-1
 811 376 l 257,10,-1
 530 376 l 257,11,-1
 530 547 l 257,12,-1
 830 547 l 257,13,-1
 830 649 l 257,14,-1
 288 649 l 257,15,-1
 22 0 l 257,0,-1
244 229 m 257,16,-1
 373 547 l 257,17,-1
 412 547 l 257,18,-1
 412 229 l 257,19,-1
 244 229 l 257,16,-1
EndSplineSet
EndChar
StartChar: Eth
Encoding: 208 208 302
Width: 686
VWidth: 0
Flags: W
LayerCount: 2
Fore
SplineSet
22 288 m 257,0,-1
 343 288 l 257,1,-1
 343 358 l 257,2,-1
 22 358 l 257,3,-1
 22 288 l 257,0,-1
92 0 m 257,4,-1
 303 0 l 258,5,6
 452 0 452 0 543 88.5 c 128,-1,7
 634 177 634 177 634 324 c 0,8,9
 634 472 634 472 543 560.5 c 128,-1,10
 452 649 452 649 303 649 c 2,11,-1
 92 649 l 257,12,-1
 92 0 l 257,4,-1
211 107 m 257,13,-1
 211 542 l 257,14,-1
 303 542 l 258,15,16
 396 542 396 542 451 481.5 c 128,-1,17
 506 421 506 421 506 324 c 0,18,19
 506 228 506 228 451 167.5 c 128,-1,20
 396 107 396 107 303 107 c 2,21,-1
 211 107 l 257,13,-1
EndSplineSet
EndChar
StartChar: Ugrave
Encoding: 217 217 113
Width: 690
Flags: W
LayerCount: 2
Fore
SplineSet
83 245 m 2,4,-1
 83 649 l 1,5,-1
 201 649 l 1,6,-1
 201 245 l 2,7,8
 201 165 201 165 241.5 130 c 128,-1,9
 282 95 282 95 346 95 c 128,-1,10
 410 95 410 95 450.5 130 c 128,-1,11
 491 165 491 165 491 245 c 2,12,-1
 491 649 l 1,13,-1
 609 649 l 1,14,-1
 609 245 l 2,15,16
 609 121 609 121 540 53.5 c 128,-1,17
 471 -14 471 -14 346 -14 c 128,-1,18
 221 -14 221 -14 152 53.5 c 128,-1,19
 83 121 83 121 83 245 c 2,4,-1
191 798 m 1,0,-1
 233 900 l 1,1,-1
 500 768 l 1,2,-1
 470 694 l 1,3,-1
 191 798 l 1,0,-1
EndSplineSet
EndChar
StartChar: ae
Encoding: 230 230 168
Width: 876
VWidth: 0
Flags: W
LayerCount: 2
Fore
SplineSet
55 142 m 0,0,1
 55 74 55 74 107 30 c 128,-1,2
 159 -14 159 -14 263 -14 c 0,3,4
 384 -14 384 -14 452 80 c 1,5,6
 513 -14 513 -14 621 -14 c 0,7,8
 704 -14 704 -14 760 30 c 128,-1,9
 816 74 816 74 827 145 c 1,10,-1
 708 145 l 257,11,12
 695 81 695 81 621 81 c 0,13,14
 566 81 566 81 538 118.5 c 128,-1,15
 510 156 510 156 510 220 c 257,16,-1
 824 220 l 257,17,18
 828 243 828 243 828 270 c 0,19,20
 828 367 828 367 773.5 433 c 128,-1,21
 719 499 719 499 621 499 c 0,22,23
 520 499 520 499 460 423 c 1,24,25
 404 499 404 499 296 499 c 0,26,27
 74 499 74 499 74 342 c 1,28,-1
 203 342 l 257,29,30
 203 375 203 375 228 394 c 128,-1,31
 253 413 253 413 296 413 c 0,32,33
 345 413 345 413 366 389 c 128,-1,34
 387 365 387 365 387 313 c 2,35,-1
 387 284 l 257,36,-1
 269 284 l 258,37,38
 165 284 165 284 110 247.5 c 128,-1,39
 55 211 55 211 55 142 c 0,0,1
181 142 m 0,40,41
 181 220 181 220 325 220 c 2,42,-1
 387 220 l 257,43,-1
 387 181 l 258,44,45
 387 140 387 140 355.5 110.5 c 128,-1,46
 324 81 324 81 273 81 c 0,47,48
 227 81 227 81 204 97.5 c 128,-1,49
 181 114 181 114 181 142 c 0,40,41
510 284 m 257,50,51
 514 338 514 338 543.5 371.5 c 128,-1,52
 573 405 573 405 622 405 c 256,53,54
 672 405 672 405 695 370 c 128,-1,55
 718 335 718 335 718 284 c 1,56,-1
 510 284 l 257,50,51
EndSplineSet
EndChar
StartChar: ccedilla
Encoding: 231 231 167
Width: 530
VWidth: 0
LayerCount: 2
Fore
SplineSet
47 243 m 0,0,1
 47 360.794 47 360.794 116.5 432.5 c 0,2,3
 180.954 499 180.954 499 277.5 499 c 0,4,5
 324 499 324 499 360.5 483.5 c 128,-1,6
 397 468 397 468 422.5 443 c 0,7,8
 471.933 394.536 471.933 394.536 481 322 c 1,9,-1
 362 319 l 1,10,11
 354 351 354 351 332.5 372 c 128,-1,12
 311 393 311 393 283 393 c 128,-1,13
 255 393 255 393 235 384.5 c 128,-1,14
 215 376 215 376 200 357.5 c 0,15,16
 166 315.567 166 315.567 166 241.783 c 128,-1,17
 166 168 166 168 198 130.5 c 128,-1,18
 230 93 230 93 275.5 93 c 128,-1,19
 321 93 321 93 341.5 114.5 c 128,-1,20
 362 136 362 136 362 173 c 1,21,-1
 481 173 l 1,22,23
 481 93 481 93 428.5 40.5 c 0,24,25
 384.727 -3.27266 384.727 -3.27266 313.539 -11.8885 c 1,26,-1
 298.92 -44.2637 l 1,27,28
 345.88 -46.4902 345.88 -46.4902 368.61 -64.7451 c 128,-1,29
 391.341 -83.001 391.341 -83.001 391.341 -112.388 c 0,30,31
 391.341 -154.24 391.341 -154.24 352.374 -175.612 c 128,-1,32
 313.408 -196.984 313.408 -196.984 239.971 -196.984 c 0,33,34
 217.49 -196.984 217.49 -196.984 189.514 -194.312 c 1,35,-1
 189.514 -141.773 l 1,36,37
 206.999 -144.891 206.999 -144.891 231.478 -144.891 c 0,38,39
 299.919 -144.891 299.919 -144.891 299.919 -114.168 c 0,40,41
 299.919 -98.585 299.919 -98.585 285.932 -91.0156 c 128,-1,42
 271.943 -83.4463 271.943 -83.4463 238.972 -83.4463 c 0,43,44
 219.987 -83.4463 219.987 -83.4463 212.993 -84.3369 c 1,45,-1
 242.423 -11.5694 l 1,46,47
 169.268 -0.956153 169.268 -0.956153 116.5 56 c 0,48,49
 47 131.016 47 131.016 47 243 c 0,0,1
EndSplineSet
EndChar
StartChar: edieresis
Encoding: 235 235 130
Width: 530
Flags: W
LayerCount: 2
Fore
SplineSet
47 243 m 0,24,25
 47 359.677 47 359.677 114 431 c 0,26,27
 177.879 499 177.879 499 275 499 c 0,28,29
 376.185 499 376.185 499 431.5 428.5 c 0,30,31
 457 396 457 396 469.5 354 c 128,-1,32
 482 312 482 312 482 277 c 128,-1,33
 482 242 482 242 478 214 c 1,34,-1
 164 214 l 1,35,36
 166 155 166 155 193 118 c 128,-1,37
 220 81 220 81 275 81 c 0,38,39
 348 81 348 81 362 145 c 1,40,-1
 481 145 l 1,41,42
 468.56 72.4359 468.56 72.4359 414 30 c 0,43,44
 357.429 -14 357.429 -14 275 -14 c 0,45,46
 179.239 -14 179.239 -14 114 56.5 c 0,47,48
 47 128.903 47 128.903 47 243 c 0,24,25
99 678.5 m 128,-1,9
 99 707 99 707 118.5 726 c 128,-1,10
 138 745 138 745 169 745 c 128,-1,11
 200 745 200 745 220 726 c 128,-1,12
 240 707 240 707 240 678.5 c 128,-1,13
 240 650 240 650 220 631.5 c 128,-1,14
 200 613 200 613 169 613 c 128,-1,15
 138 613 138 613 118.5 631.5 c 128,-1,8
 99 650 99 650 99 678.5 c 128,-1,9
165 289 m 1,16,-1
 372 289 l 1,17,18
 372 367.703 372 367.703 321.5 395 c 0,19,20
 303 405 303 405 276 405 c 0,21,22
 226 405 226 405 198 372.5 c 128,-1,23
 170 340 170 340 165 289 c 1,16,-1
292 679 m 128,-1,1
 292 708 292 708 312 727 c 128,-1,2
 332 746 332 746 362.5 746 c 128,-1,3
 393 746 393 746 413 727 c 128,-1,4
 433 708 433 708 433 679 c 128,-1,5
 433 650 433 650 413 632 c 128,-1,6
 393 614 393 614 362.5 614 c 128,-1,7
 332 614 332 614 312 632 c 128,-1,0
 292 650 292 650 292 679 c 128,-1,1
EndSplineSet
EndChar
StartChar: ograve
Encoding: 242 242 100
Width: 566
Flags: W
LayerCount: 2
Fore
SplineSet
47 242 m 0,12,13
 47 367 47 367 116 436 c 0,14,15
 179 499 179 499 283.5 499 c 0,16,17
 333 499 333 499 376 483.5 c 128,-1,18
 419 468 419 468 450.5 436 c 0,19,20
 519 366.413 519 366.413 519 242 c 0,21,22
 519 119.587 519 119.587 450.5 50 c 0,23,24
 387.5 -14 387.5 -14 284 -14 c 0,25,26
 180 -14 180 -14 116 50 c 0,27,28
 47 119 47 119 47 242 c 0,12,13
130 662 m 1,0,-1
 172 764 l 1,1,-1
 439 632 l 1,2,-1
 409 558 l 1,3,-1
 130 662 l 1,0,-1
166 243 m 128,-1,5
 166 166 166 166 196.5 127.5 c 128,-1,6
 227 89 227 89 280 89 c 128,-1,7
 333 89 333 89 367 127.5 c 128,-1,8
 401 166 401 166 401 243 c 128,-1,9
 401 320 401 320 371 358.5 c 128,-1,10
 341 397 341 397 287.5 397 c 128,-1,11
 234 397 234 397 200 358.5 c 128,-1,4
 166 320 166 320 166 243 c 128,-1,5
EndSplineSet
EndChar
StartChar: thorn
Encoding: 254 254 306
Width: 610
VWidth: 0
Flags: W
LayerCount: 2
Fore
SplineSet
93 -237 m 257,0,-1
 211 -237 l 257,1,-1
 211 39 l 257,2,3
 252 -14 252 -14 336 -14 c 256,4,5
 430 -14 430 -14 496.5 56 c 128,-1,6
 563 126 563 126 563 243 c 0,7,8
 563 359 563 359 497.5 429 c 128,-1,9
 432 499 432 499 341 499 c 0,10,11
 248 499 248 499 201 420 c 1,12,-1
 201 649 l 257,13,-1
 93 649 l 257,14,-1
 93 -237 l 257,0,-1
211 196 m 2,15,-1
 211 283 l 258,16,17
 211 334 211 334 243 363.5 c 128,-1,18
 275 393 275 393 321 393 c 0,19,20
 375 393 375 393 409.5 352.5 c 128,-1,21
 444 312 444 312 444 243 c 0,22,23
 444 172 444 172 406 132.5 c 128,-1,24
 368 93 368 93 319 93 c 256,25,26
 275 93 275 93 243 121 c 128,-1,27
 211 149 211 149 211 196 c 2,15,-1
EndSplineSet
EndChar
StartChar: OE
Encoding: 338 338 324
Width: 1269
LayerCount: 2
Fore
SplineSet
495 445.20734023 m 1,0,1
 484.276272105 473.672807262 484.276272105 473.672807262 467.5 495.5 c 0,2,3
 421 556 421 556 342 556 c 128,-1,4
 263 556 263 556 216 495.5 c 128,-1,5
 169 435 169 435 169 323.5 c 128,-1,6
 169 212 169 212 216 152.5 c 128,-1,7
 263 93 263 93 342 93 c 128,-1,8
 421 93 421 93 467.5 152.5 c 0,9,10
 484.276272105 173.966412693 484.276272105 173.966412693 495 202.201261921 c 1,11,12
 495 445.20734023 l 1,0,1
341.5 662 m 0,13,14
 429.192834666 662 429.192834666 662 495 624.081295489 c 1,15,-1
 495 649 l 1,16,-1
 913 649 l 1,17,-1
 913 547 l 1,18,-1
 613 547 l 1,19,-1
 613 376 l 1,20,-1
 894 376 l 1,21,-1
 894 274 l 1,22,-1
 613 274 l 1,23,-1
 613 103 l 1,24,-1
 913 103 l 1,25,-1
 913 0 l 1,26,-1
 495 0 l 1,27,-1
 495 23.0514975448 l 1,28,29
 430.697914065 -14 430.697914065 -14 341 -14 c 0,30,31
 207.458984375 -14 207.458984375 -14 127.229492188 73.4296875 c 128,-1,32
 47 160.859375 47 160.859375 47 325.775878906 c 128,-1,33
 47 490.692382812 47 490.692382812 126.535644531 576.346191406 c 128,-1,34
 206.071289062 662 206.071289062 662 341.5 662 c 0,13,14
EndSplineSet
EndChar
StartChar: longs
Encoding: 383 383 496
Width: 366
Flags: W
LayerCount: 2
Fore
SplineSet
40 407 m 1,0,-1
 40 486 l 1,1,-1
 112 486 l 1,2,-1
 112 543 l 2,3,4
 112 618.341 112 618.341 156.5 658.5 c 0,5,6
 195.838 694 195.838 694 260 694 c 0,7,8
 301 694 301 694 361 682 c 1,9,-1
 338 591 l 1,10,11
 310 601 310 601 287.5 601 c 128,-1,12
 265 601 265 601 248 588.5 c 128,-1,13
 231 576 231 576 231 542 c 2,14,-1
 231 0 l 1,15,-1
 112 0 l 1,16,-1
 112 407 l 1,17,-1
 40 407 l 1,0,-1
EndSplineSet
EndChar
StartChar: uni0237
Encoding: 567 567 329
Width: 335
LayerCount: 2
Fore
SplineSet
-76 -220 m 1,0,-1
 -74 -118 l 1,1,2
 -14 -148 -14 -148 29 -148 c 128,-1,3
 72 -148 72 -148 91 -127.5 c 128,-1,4
 110 -107 110 -107 110 -56 c 2,5,-1
 110 488 l 1,6,-1
 228 488 l 1,7,-1
 228 -58 l 2,8,9
 228 -162 228 -162 184.5 -206.5 c 128,-1,10
 141 -251 141 -251 71.25 -251 c 128,-1,11
 1.5 -251 1.5 -251 -76 -220 c 1,0,-1
EndSplineSet
EndChar
StartChar: uni0243
Encoding: 579 579 181
Width: 648
Flags: W
LayerCount: 2
Fore
SplineSet
16 150 m 1,0,-1
 16 219 l 1,1,-1
 93 219 l 1,2,-1
 93 649 l 1,3,-1
 355 649 l 2,4,5
 463.404 649 463.404 649 522.5 598.5 c 0,6,7
 578 551.073 578 551.073 578 477 c 0,8,9
 578 422 578 422 547.5 383 c 128,-1,10
 517 344 517 344 462 328 c 1,11,12
 517 317 517 317 553 278.5 c 128,-1,13
 589 240 589 240 589 180 c 0,14,15
 589 60.1333 589 60.1333 470 16.5 c 0,16,17
 425 0 425 0 356 0 c 2,18,-1
 93 0 l 1,19,-1
 93 150 l 1,20,-1
 16 150 l 1,0,-1
211 103 m 1,21,-1
 353 103 l 2,22,23
 410 103 410 103 435.5 126 c 128,-1,24
 461 149 461 149 461 187 c 128,-1,25
 461 225 461 225 434.5 248.5 c 128,-1,26
 408 272 408 272 353 272 c 2,27,-1
 211 272 l 1,28,-1
 211 219 l 1,29,-1
 309 219 l 1,30,-1
 309 150 l 1,31,-1
 211 150 l 1,32,-1
 211 103 l 1,21,-1
211 375 m 1,33,-1
 350 375 l 2,34,35
 403 375 403 375 430 398 c 128,-1,36
 457 421 457 421 457 460.5 c 128,-1,37
 457 500 457 500 430.5 523.5 c 128,-1,38
 404 547 404 547 351 547 c 2,39,-1
 211 547 l 1,40,-1
 211 375 l 1,33,-1
EndSplineSet
EndChar
StartChar: afii10021
Encoding: 1044 1044 386
Width: 737
Flags: W
HStem: -140 244<18 112.414 624.867 717> 0 104<236.394 500.425> 629 20G<291.19 452.564>
VStem: 18 118<-140 0> 599 118<-140 0>
LayerCount: 2
Fore
SplineSet
717 104 m 5,0,-1
 717 -140 l 5,1,-1
 599 -140 l 5,2,-1
 599 0 l 5,3,-1
 136 0 l 5,4,-1
 136 -140 l 5,5,-1
 18 -140 l 5,6,-1
 18 104 l 5,7,-1
 82 104 l 4,8,9
 115 104 115 104 162 224 c 4,10,11
 203 328 203 328 204.766601562 452 c 4,12,-1
 214 649 l 5,13,-1
 625 649 l 5,14,-1
 625 104 l 5,15,-1
 717 104 l 5,0,-1
224 104 m 5,16,-1
 500 104 l 5,17,-1
 500 547 l 5,18,-1
 317 547 l 5,19,-1
 309.069335938 410 l 6,20,21
 303.606911792 317.720452165 303.606911792 317.720452165 282.819856958 242 c 4,22,23
 261.48295968 164.276651377 261.48295968 164.276651377 224 104 c 5,16,-1
EndSplineSet
EndChar
StartChar: afii10029
Encoding: 1051 1051 393
Width: 675
Flags: W
HStem: -11 69<23.026 113.347> 0 21G<471 554> 561 68<253 471>
VStem: 173 80<199.65 561> 471 83<0 561>
LayerCount: 2
Fore
SplineSet
23 0 m 1,0,-1
 23 104 l 1,1,2
 51 94 51 94 71.61328125 94 c 0,3,4
 100 94 100 94 142 176.5 c 0,5,6
 196.977196165 283.955428868 196.977196165 283.955428868 205 456 c 2,7,-1
 214 649 l 1,8,-1
 625 649 l 1,9,-1
 625 0 l 1,10,-1
 500 0 l 1,11,-1
 500 547 l 1,12,-1
 317 547 l 1,13,-1
 306 374 l 2,14,15
 296 212 296 212 217.176757812 97 c 0,16,17
 144 -11 144 -11 67 -11 c 0,18,19
 51 -11 51 -11 23 0 c 1,0,-1
EndSplineSet
EndChar
StartChar: afii10042
Encoding: 1064 1064 406
Width: 916
Flags: W
HStem: 0 102<211 403 521 723> 629 20G<93 211 403 521 723 841>
VStem: 93 118<102 649> 403 118<102 649> 723 118<102 649>
LayerCount: 2
Fore
SplineSet
93 0 m 1,0,-1
 93 649 l 1,1,-1
 211 649 l 1,2,-1
 211 102 l 1,3,-1
 403 102 l 1,4,-1
 403 649 l 1,5,-1
 521 649 l 1,6,-1
 521 102 l 1,7,-1
 723 102 l 1,8,-1
 723 649 l 1,9,-1
 841 649 l 1,10,-1
 841 0 l 1,11,-1
 93 0 l 1,0,-1
EndSplineSet
EndChar
StartChar: afii10049
Encoding: 1071 1071 413
Width: 577
Flags: W
HStem: 0 21G<31 145.685 406 485> 257 55<296 406> 561 68<180.101 406>
VStem: 47 81<363.55 511.913> 406 79<0 257 312 561>
LayerCount: 2
Fore
SplineSet
502 0 m 1,0,-1
 384 0 l 1,1,-1
 384 253 l 1,2,-1
 294 253 l 1,3,-1
 151 0 l 1,4,-1
 -3 0 l 1,5,-1
 171 264 l 1,6,7
 98 283 98 283 59 332 c 128,-1,8
 20 381 20 381 20 450 c 0,9,10
 20 540.64453125 20 540.64453125 83 594.5 c 0,11,12
 146.754882812 649 146.754882812 649 262 649 c 2,13,-1
 502 649 l 1,14,-1
 502 0 l 1,0,-1
384 332 m 1,15,-1
 384 547 l 1,16,-1
 262 547 l 2,17,18
 202 547 202 547 172 517.5 c 128,-1,19
 142 488 142 488 142 439.5 c 128,-1,20
 142 391 142 391 175 361.5 c 128,-1,21
 208 332 208 332 273 332 c 2,22,-1
 384 332 l 1,15,-1
EndSplineSet
EndChar
StartChar: afii10067
Encoding: 1074 1074 416
Width: 523
Flags: W
HStem: 0 59<129 372.25> 229 56<129 317.831> 422 68<129 349.149>
VStem: 50 79<59 229 285 422> 357 88<322.019 409.518> 402 81<87.3598 198.512>
LayerCount: 2
Fore
SplineSet
50 0 m 5,0,-1
 50 487 l 5,1,-1
 286 487 l 6,2,3
 348 487 348 487 392 455.5 c 4,4,5
 435 424 435 424 435 368 c 4,6,7
 435 328 435 328 419.5 300.5 c 132,-1,8
 404 273 404 273 374 266 c 5,9,10
 431 251 431 251 452 223 c 132,-1,11
 473 195 473 195 473 138.5 c 4,12,13
 473 60 473 60 426.5 30 c 4,14,15
 378 0 378 0 286 0 c 6,16,-1
 50 0 l 5,0,-1
168 96 m 5,17,-1
 258 96 l 6,18,19
 295 96 295 96 312.5 104 c 4,20,21
 342 117 342 117 342 158 c 4,22,23
 342 190 342 190 312 210 c 4,24,25
 296 221 296 221 258 221 c 6,26,-1
 168 221 l 5,27,-1
 168 96 l 5,17,-1
168 300 m 5,28,-1
 244 300 l 6,29,30
 265 300 265 300 281 308 c 132,-1,31
 297 316 297 316 297 344 c 4,32,33
 297 365 297 365 281 374.413085938 c 4,34,35
 268 383 268 383 244 383 c 6,36,-1
 168 383 l 5,37,-1
 168 300 l 5,28,-1
EndSplineSet
EndChar
StartChar: afii10068
Encoding: 1075 1075 417
Width: 400
Flags: W
HStem: 0 21G<50 129> 411 68<129 390>
VStem: 50 79<0 411>
LayerCount: 2
Fore
SplineSet
50 0 m 1,0,-1
 50 479 l 1,1,-1
 360 479 l 1,2,-1
 360 378 l 1,3,-1
 168 378 l 1,4,-1
 168 0 l 1,5,-1
 50 0 l 1,0,-1
EndSplineSet
EndChar
StartChar: afii10073
Encoding: 1079 1079 414
Width: 480
Flags: WO
HStem: -11 70<140.943 298.539> 234 54<152 272.567> 429.75 67.5996<127.568 277.802>
VStem: 297.725 87.2754<312.352 409.419> 342.725 80.2754<97.4289 195.725>
LayerCount: 2
Fore
SplineSet
231 499 m 128,-1,1
 300 499 300 499 355 468 c 0,2,3
 414 435 414 435 414 362 c 0,4,5
 414 308 414 308 342 272 c 1,6,7
 440 243 440 243 440 150 c 3,8,9
 440 68 440 68 381 27 c 128,-1,10
 322 -14 322 -14 248 -14 c 3,11,12
 156 -14 156 -14 93.5 30 c 128,-1,13
 31 74 31 74 30 141 c 1,14,-1
 157 141 l 1,15,16
 165 115 165 115 181 102 c 0,17,18
 198 89 198 89 240 89 c 3,19,20
 273 89 273 89 289 102.5 c 0,21,22
 310 119 310 119 310 148 c 0,23,24
 310 195 310 195 273.5 213.5 c 0,25,26
 258 221 258 221 222 221 c 2,27,-1
 199 221 l 1,28,-1
 199 300 l 1,29,-1
 222 300 l 0,30,31
 279 300 279 300 290 312.5 c 0,32,33
 299 322 299 322 299 338 c 0,34,35
 299 363 299 363 295.063476562 373 c 0,36,37
 292 380 292 380 288 384.5 c 0,38,39
 277 396 277 396 233 397 c 0,40,41
 188 398 188 398 174 381.048828125 c 0,42,43
 165 371 165 371 164 332 c 1,44,-1
 46 332 l 0,45,46
 47 423 47 423 112 466.095703125 c 0,47,0
 162 499 162 499 231 499 c 128,-1,1
EndSplineSet
EndChar
StartChar: afii10081
Encoding: 1087 1087 429
Width: 529
Flags: W
HStem: 0 21G<50 168 361 479> 383 96<168 361>
VStem: 50 118<0 383> 361 118<0 383>
LayerCount: 2
Fore
SplineSet
50 0 m 1,0,-1
 50 479 l 1,1,-1
 479 479 l 1,2,-1
 479 0 l 1,3,-1
 361 0 l 1,4,-1
 361 383 l 1,5,-1
 168 383 l 1,6,-1
 168 0 l 1,7,-1
 50 0 l 1,0,-1
EndSplineSet
EndChar
StartChar: afii10086
Encoding: 1092 1092 434
Width: 871
Flags: W
LayerCount: 2
Fore
SplineSet
293 -11 m 0,0,1
 176 -11 176 -11 108 55 c 128,-1,2
 40 121 40 121 40 239.5 c 128,-1,3
 40 358 40 358 108 424 c 128,-1,4
 176 490 176 490 293 490 c 0,5,6
 335 490 335 490 371 481 c 1,7,-1
 371 681 l 1,8,-1
 500 681 l 1,9,-1
 500 481 l 1,10,11
 537 490 537 490 586.5 490 c 128,-1,12
 636 490 636 490 683 473 c 128,-1,13
 730 456 730 456 764 423 c 0,14,15
 831 358 831 358 831 239.5 c 128,-1,17
 831 121 831 121 763 55 c 128,-1,19
 695 -11 695 -11 578 -11 c 0,20,21
 536 -11 536 -11 500 -2 c 1,22,-1
 500 -200 l 1,23,-1
 371 -200 l 1,24,-1
 371 -2 l 1,25,26
 335 -11 335 -11 293 -11 c 0,0,1
302 97 m 0,27,28
 342 97 342 97 371 116 c 1,29,-1
 371 361 l 1,30,31
 340 382 340 382 293.5 382 c 128,-1,33
 247 382 247 382 226 370 c 128,-1,34
 205 358 205 358 192 343 c 0,35,36
 160 308 160 308 160 240 c 0,37,38
 160 97 160 97 302 97 c 0,27,28
500 361 m 1,39,-1
 500 116 l 1,40,41
 529 97 529 97 584.5 97 c 128,-1,42
 640 97 640 97 675.5 134.5 c 128,-1,44
 711 172 711 172 711 240 c 0,45,46
 711 382 711 382 580 382 c 0,47,48
 531 382 531 382 500 361 c 1,39,-1
EndSplineSet
EndChar
StartChar: afii10089
Encoding: 1095 1095 437
Width: 588
Flags: W
LayerCount: 2
Fore
SplineSet
168 294 m 2,0,1
 168 200 168 200 268 200 c 0,2,3
 323 200 323 200 383 224 c 1,4,-1
 383 479 l 1,5,-1
 502 479 l 1,6,-1
 502 0 l 1,7,-1
 383 0 l 1,8,-1
 383 118 l 1,9,10
 321 91 321 91 240.5 91 c 128,-1,11
 160 91 160 91 104.5 139 c 128,-1,12
 49 187 49 187 49 285 c 2,13,-1
 49 479 l 1,14,-1
 168 479 l 1,15,-1
 168 294 l 2,0,1
EndSplineSet
EndChar
StartChar: afii10090
Encoding: 1096 1096 438
Width: 891
Flags: W
HStem: 0 68<128 382 460 721> 459 20G<50 128 382 460 721 800>
VStem: 50 78<68 479> 382 78<68 479> 721 79<68 479>
LayerCount: 2
Fore
SplineSet
50 0 m 5,0,-1
 50 479 l 5,1,-1
 168 479 l 5,2,-1
 168 96 l 5,3,-1
 383 96 l 5,4,-1
 382 479 l 5,5,-1
 501 479 l 5,6,-1
 501 94 l 5,7,-1
 721 94 l 5,8,-1
 721 479 l 5,9,-1
 841 479 l 5,10,-1
 841 0 l 5,11,-1
 50 0 l 5,0,-1
EndSplineSet
EndChar
StartChar: afii10092
Encoding: 1098 1098 440
Width: 661
Flags: W
LayerCount: 2
Fore
SplineSet
286 239 m 1,0,-1
 286 96 l 1,1,-1
 358 96 l 2,2,3
 406 96 406 96 437.5 114 c 128,-1,4
 469 132 469 132 469 168 c 128,-1,5
 469 204 469 204 440 221.5 c 128,-1,6
 411 239 411 239 364 239 c 2,7,-1
 286 239 l 1,0,-1
168 372 m 1,8,-1
 20 372 l 1,9,-1
 20 479 l 1,10,-1
 286 478 l 1,11,-1
 286 334 l 1,12,-1
 362 334 l 2,13,14
 404 334 404 334 450.5 322 c 128,-1,15
 497 310 497 310 527 285 c 0,16,17
 589 236 589 236 588.5 161.5 c 128,-1,18
 588 87 588 87 528 42.5 c 128,-1,19
 468 -2 468 -2 362 -1 c 2,20,-1
 168 0 l 1,21,-1
 168 372 l 1,8,-1
EndSplineSet
EndChar
StartChar: afii10093
Encoding: 1099 1099 441
Width: 733
Flags: W
HStem: 0 21G<476 555> 0 57<129 304.478> 262 68<129.005 304.665> 459 20G<50 129.001 476 555>
VStem: 50 79<57 262 330 479> 344 80<92.6646 227.847> 476 79<0 479>
LayerCount: 2
Fore
SplineSet
556 0 m 1,0,-1
 556 479 l 1,1,-1
 674 479 l 1,2,-1
 674 0 l 1,3,-1
 556 0 l 1,0,-1
EndSplineSet
Refer: 442 1100 N 1 0 0 1 0 0 2
EndChar
StartChar: afii10094
Encoding: 1100 1100 442
Width: 544
Flags: W
LayerCount: 2
Fore
SplineSet
50 0 m 5,0,-1
 50 479 l 5,1,-1
 168.999023438 479 l 5,2,-1
 169 461.685546875 l 5,3,-1
 169.00390625 335 l 5,4,-1
 245.0234375 335 l 6,5,6
 287 335 287 335 333.5 323 c 132,-1,7
 380 311 380 311 410 286 c 4,8,9
 472 237 472 237 472 162.5 c 132,-1,10
 472 88 472 88 411.5 44 c 132,-1,11
 351 0 351 0 245.022988506 0 c 6,12,-1
 50 0 l 5,0,-1
169 240 m 5,13,-1
 169 97 l 5,14,-1
 241.333333333 97 l 6,15,16
 289 97 289 97 320.5 115 c 132,-1,17
 352 133 352 133 352 169 c 132,-1,18
 352 205 352 205 323 222.5 c 132,-1,19
 294 240 294 240 246.868164062 240 c 6,20,-1
 169 240 l 5,13,-1
EndSplineSet
EndChar
StartChar: afii10096
Encoding: 1102 1102 444
Width: 773
Flags: W
HStem: -11 68<322.776 478.784> 0 21G<50 129> 227 68<129 180.157> 422 68<326.942 481.646> 458 20G<50 129>
VStem: 50 79<0 227 295 478> 180.157 80.8428<128.489 227 295 348.733> 546 80<132.406 349.702>
LayerCount: 2
Fore
SplineSet
168 221 m 1,0,-1
 168 1 l 1,1,-1
 50 0 l 1,2,-1
 50 478 l 1,3,-1
 168 479 l 1,4,-1
 168 300 l 1,5,-1
 255 300 l 1,6,7
 267 386 267 386 320 439 c 0,8,9
 384 502 384 502 488.5 502 c 128,-1,11
 593 502 593 502 657.5 436 c 128,-1,12
 722 370 722 370 723 245 c 0,13,14
 722 123 722 123 656.5 56 c 128,-1,15
 591 -11 591 -11 487.5 -11 c 128,-1,16
 384 -11 384 -11 321 52 c 128,-1,17
 258 115 258 115 252 221 c 1,18,-1
 168 221 l 1,0,-1
255 300 m 1025,19,20
370 246 m 128,-1,22
 370 169 370 169 401 130.5 c 128,-1,23
 432 92 432 92 485 92 c 128,-1,24
 538 92 538 92 572 130.5 c 128,-1,25
 606 169 606 169 606 246 c 128,-1,26
 606 323 606 323 576 361.5 c 128,-1,27
 546 400 546 400 492 400 c 128,-1,28
 438 400 438 400 404 361.5 c 128,-1,21
 370 323 370 323 370 246 c 128,-1,22
EndSplineSet
EndChar
StartChar: afii10097
Encoding: 1103 1103 445
Width: 591
Flags: W
LayerCount: 2
Fore
SplineSet
204.852539062 190.853515625 m 2,0,1
 205 191 205 191 200.267578125 192.396484375 c 0,2,3
 160 205 160 205 141 222 c 128,-1,4
 122 239 122 239 111.5 259 c 128,-1,5
 101 279 101 279 101.348632812 335.891601562 c 0,6,7
 102 412 102 412 162.907517422 445.000679119 c 128,-1,8
 224 478 224 478 318.185038763 478 c 2,9,-1
 502 478 l 1,10,-1
 502 0 l 1,11,-1
 383 0 l 1,12,-1
 383 180 l 1,13,-1
 335.030273438 181 l 1,14,-1
 187 0 l 1,15,-1
 50 0 l 1,16,-1
 204.852539062 190.853515625 l 2,0,1
312.389331232 382 m 2,17,18
 284.599907529 382 284.599907529 382 261.738769531 368.672851562 c 0,19,20
 239 355 239 355 239.020158563 317.991403991 c 128,-1,21
 239.040317127 280.982807982 239.040317127 280.982807982 260.882324219 271.668945312 c 0,22,23
 282 261 282 261 312.389648438 261 c 2,24,-1
 383 261 l 1,25,-1
 383 382 l 1,26,-1
 312.389331232 382 l 2,17,18
EndSplineSet
EndChar
StartChar: minus
Encoding: 8722 8722 71
Width: 544
Flags: W
LayerCount: 2
Fore
SplineSet
20 194 m 1,0,-1
 20 297 l 1,1,-1
 524 297 l 1,2,-1
 524 194 l 1,3,-1
 20 194 l 1,0,-1
EndSplineSet
EndChar
StartChar: afii10090.loclBGR
Encoding: 1114147 -1 470
Width: 949
Flags: W
HStem: -14 107<244.611 366.421 569.981 687.842> 0 21G<764.905 871> 467 20G<93 212 420 538 753 871>
VStem: 93 119<125.889 487> 420 118<150.863 487> 753 118<156.995 487> 768 103<0 45.2308>
LayerCount: 2
Fore
SplineSet
439 92 m 1,0,1
 392.000488282 -14 392.000488282 -14 274 -14 c 0,2,3
 188 -14 188 -14 139 46 c 0,4,5
 92.999511718 101.999511719 92.999511718 101.999511719 93 202 c 2,6,-1
 93 487 l 1,7,-1
 212 487 l 1,8,-1
 212 202 l 2,9,10
 212 148 212 148 238 120.5 c 0,11,12
 263.999511718 93.000488282 263.999511718 93.000488282 311 93 c 0,13,14
 357.999511718 93 357.999511718 93 388 134 c 0,15,16
 420 178 420 178 420 258 c 2,17,-1
 420 487 l 1,18,-1
 538 487 l 1,19,-1
 538 202 l 2,20,21
 538 148 538 148 564 120.5 c 0,22,23
 589.999511718 93.000488282 589.999511718 93.000488282 637 93 c 0,24,25
 683.999511718 93 683.999511718 93 717.5 135 c 0,26,27
 753 179.508111418 753 179.508111418 753 261 c 2,28,-1
 753 487 l 1,29,-1
 871 487 l 1,30,-1
 871 0 l 1,31,-1
 768 0 l 1,32,-1
 755 84 l 1,33,34
 707 -14.0004933152 707 -14.0004933152 601 -14 c 0,35,36
 539.480072034 -14 539.480072034 -14 499.5 14 c 0,37,38
 459 42.3641309863 459 42.3641309863 439 92 c 1,0,1
EndSplineSet
EndChar
StartChar: eight.propold
Encoding: 1114123 -1 91
Width: 647
Flags: W
LayerCount: 2
Fore
SplineSet
49 175 m 0,25,26
 49 236 49 236 91.5 273.5 c 128,-1,27
 134 311 134 311 200 319 c 1,28,29
 112.575 360.812 112.575 360.812 82.5 427.5 c 0,30,31
 71 453 71 453 71 485 c 0,32,33
 71 567 71 567 136.5 614.5 c 128,-1,34
 202 662 202 662 315.571 662 c 128,-1,35
 429.143 662 429.143 662 502 609.5 c 128,-1,36
 575 556.897 575 556.897 575 476 c 0,37,38
 575 427 575 427 541.5 388.5 c 128,-1,39
 508 350 508 350 445 339 c 1,40,41
 527.851 305.859 527.851 305.859 559.5 272.5 c 0,42,43
 598 231.919 598 231.919 598 172 c 0,44,45
 598 88.9 598 88.9 526 38.5 c 0,46,47
 451 -14 451 -14 323 -14 c 0,48,49
 200.18 -14 200.18 -14 123.5 40 c 0,50,51
 49 92.4648 49 92.4648 49 175 c 0,25,26
171 185 m 128,-1,13
 171 165 171 165 183 148 c 128,-1,14
 195 131 195 131 215.5 119 c 0,15,16
 256.5 95 256.5 95 328.75 95 c 128,-1,17
 401 95 401 95 438.5 114.5 c 128,-1,18
 476 134 476 134 476 162.5 c 128,-1,19
 476 191 476 191 457.5 208.5 c 128,-1,20
 439 226 439 226 407 239 c 2,21,-1
 303 278 l 1,22,23
 211.891 271.717 211.891 271.717 180.5 220.5 c 0,24,12
 171 205 171 205 171 185 c 128,-1,13
193 475.192 m 128,-1,1
 193 437.812 193 437.812 259 411 c 1,2,-1
 334 382 l 1,3,4
 381.5 382 381.5 382 417.5 406 c 0,5,6
 453 429.667 453 429.667 453 468.833 c 128,-1,7
 453 508 453 508 417 531.5 c 128,-1,8
 381 555 381 555 323 555 c 0,9,10
 267.25 555 267.25 555 230.5 534 c 0,11,0
 193 512.571 193 512.571 193 475.192 c 128,-1,1
EndSplineSet
EndChar
